<mxfile host="drawio.corp.amazon.com" modified="2024-12-13T21:51:42.927Z" agent="Mozilla/5.0 (Macintosh; Intel Mac OS X 10_15_7) AppleWebKit/537.36 (KHTML, like Gecko) Chrome/131.0.0.0 Safari/537.36" etag="U1ppitr2dVDVmaguL6WU" version="21.7.4" type="device" pages="2">
  <diagram name="architecture diagram" id="vthDe0GuaeU_-nWncDZq">
    <mxGraphModel dx="1562" dy="909" grid="0" gridSize="10" guides="1" tooltips="1" connect="1" arrows="1" fold="1" page="1" pageScale="1" pageWidth="2200" pageHeight="2200" math="0" shadow="0">
      <root>
        <mxCell id="0" />
        <mxCell id="1" parent="0" />
        <mxCell id="MV15cFvIx1wRA3DABgGs-1" value="AWS Step Functions&lt;br&gt;Workflow" style="sketch=0;outlineConnect=0;gradientColor=none;html=1;whiteSpace=wrap;fontSize=12;fontStyle=0;shape=mxgraph.aws4.group;grIcon=mxgraph.aws4.group_aws_step_functions_workflow;strokeColor=#545B64;fillColor=none;verticalAlign=top;align=left;spacingLeft=30;fontColor=#545B64;dashed=0;" parent="1" vertex="1">
          <mxGeometry x="480" y="311" width="171" height="639" as="geometry" />
        </mxCell>
        <mxCell id="MV15cFvIx1wRA3DABgGs-11" value="" style="edgeStyle=orthogonalEdgeStyle;rounded=0;orthogonalLoop=1;jettySize=auto;html=1;" parent="1" source="MV15cFvIx1wRA3DABgGs-2" target="MV15cFvIx1wRA3DABgGs-9" edge="1">
          <mxGeometry relative="1" as="geometry">
            <mxPoint x="677" y="559" as="targetPoint" />
            <Array as="points">
              <mxPoint x="785" y="395" />
              <mxPoint x="785" y="559" />
            </Array>
          </mxGeometry>
        </mxCell>
        <mxCell id="WFAlv5kVyHz6nVMSSqYj-10" style="edgeStyle=orthogonalEdgeStyle;rounded=0;orthogonalLoop=1;jettySize=auto;html=1;exitX=0;exitY=0.5;exitDx=0;exitDy=0;exitPerimeter=0;entryX=1;entryY=0.5;entryDx=0;entryDy=0;entryPerimeter=0;" parent="1" source="MV15cFvIx1wRA3DABgGs-2" target="WFAlv5kVyHz6nVMSSqYj-6" edge="1">
          <mxGeometry relative="1" as="geometry" />
        </mxCell>
        <mxCell id="WFAlv5kVyHz6nVMSSqYj-12" style="edgeStyle=orthogonalEdgeStyle;rounded=0;orthogonalLoop=1;jettySize=auto;html=1;exitX=1;exitY=0.25;exitDx=0;exitDy=0;exitPerimeter=0;entryX=0;entryY=0.25;entryDx=0;entryDy=0;entryPerimeter=0;" parent="1" source="MV15cFvIx1wRA3DABgGs-2" target="MV15cFvIx1wRA3DABgGs-18" edge="1">
          <mxGeometry relative="1" as="geometry" />
        </mxCell>
        <mxCell id="MV15cFvIx1wRA3DABgGs-2" value="&lt;b&gt;Lambda&lt;/b&gt;&lt;br&gt;Model Deployment" style="sketch=0;points=[[0,0,0],[0.25,0,0],[0.5,0,0],[0.75,0,0],[1,0,0],[0,1,0],[0.25,1,0],[0.5,1,0],[0.75,1,0],[1,1,0],[0,0.25,0],[0,0.5,0],[0,0.75,0],[1,0.25,0],[1,0.5,0],[1,0.75,0]];outlineConnect=0;fontColor=#232F3E;fillColor=#ED7100;strokeColor=#ffffff;dashed=0;verticalLabelPosition=bottom;verticalAlign=top;align=center;html=1;fontSize=12;fontStyle=0;aspect=fixed;shape=mxgraph.aws4.resourceIcon;resIcon=mxgraph.aws4.lambda;" parent="1" vertex="1">
          <mxGeometry x="520" y="356" width="78" height="78" as="geometry" />
        </mxCell>
        <mxCell id="MV15cFvIx1wRA3DABgGs-13" value="" style="edgeStyle=orthogonalEdgeStyle;rounded=0;orthogonalLoop=1;jettySize=auto;html=1;" parent="1" source="MV15cFvIx1wRA3DABgGs-6" target="MV15cFvIx1wRA3DABgGs-9" edge="1">
          <mxGeometry relative="1" as="geometry">
            <mxPoint x="657" y="699" as="targetPoint" />
          </mxGeometry>
        </mxCell>
        <mxCell id="WFAlv5kVyHz6nVMSSqYj-9" style="edgeStyle=orthogonalEdgeStyle;rounded=0;orthogonalLoop=1;jettySize=auto;html=1;exitX=0;exitY=0.5;exitDx=0;exitDy=0;exitPerimeter=0;entryX=1;entryY=0.5;entryDx=0;entryDy=0;entryPerimeter=0;" parent="1" source="MV15cFvIx1wRA3DABgGs-6" target="WFAlv5kVyHz6nVMSSqYj-6" edge="1">
          <mxGeometry relative="1" as="geometry" />
        </mxCell>
        <mxCell id="MV15cFvIx1wRA3DABgGs-6" value="&lt;b&gt;Lambda&lt;/b&gt;&lt;br&gt;Endpoint Deployment" style="sketch=0;points=[[0,0,0],[0.25,0,0],[0.5,0,0],[0.75,0,0],[1,0,0],[0,1,0],[0.25,1,0],[0.5,1,0],[0.75,1,0],[1,1,0],[0,0.25,0],[0,0.5,0],[0,0.75,0],[1,0.25,0],[1,0.5,0],[1,0.75,0]];outlineConnect=0;fontColor=#232F3E;fillColor=#ED7100;strokeColor=#ffffff;dashed=0;verticalLabelPosition=bottom;verticalAlign=top;align=center;html=1;fontSize=12;fontStyle=0;aspect=fixed;shape=mxgraph.aws4.resourceIcon;resIcon=mxgraph.aws4.lambda;" parent="1" vertex="1">
          <mxGeometry x="520" y="520" width="78" height="78" as="geometry" />
        </mxCell>
        <mxCell id="MV15cFvIx1wRA3DABgGs-15" value="" style="edgeStyle=orthogonalEdgeStyle;rounded=0;orthogonalLoop=1;jettySize=auto;html=1;endArrow=none;endFill=0;entryX=0.5;entryY=1;entryDx=0;entryDy=0;entryPerimeter=0;" parent="1" source="MV15cFvIx1wRA3DABgGs-7" target="MV15cFvIx1wRA3DABgGs-9" edge="1">
          <mxGeometry relative="1" as="geometry">
            <mxPoint x="677" y="839" as="targetPoint" />
            <Array as="points">
              <mxPoint x="902" y="671" />
            </Array>
          </mxGeometry>
        </mxCell>
        <mxCell id="WFAlv5kVyHz6nVMSSqYj-2" value="" style="edgeStyle=orthogonalEdgeStyle;rounded=0;orthogonalLoop=1;jettySize=auto;html=1;" parent="1" source="MV15cFvIx1wRA3DABgGs-7" target="WFAlv5kVyHz6nVMSSqYj-1" edge="1">
          <mxGeometry relative="1" as="geometry">
            <Array as="points">
              <mxPoint x="608" y="699" />
              <mxPoint x="608" y="699" />
            </Array>
          </mxGeometry>
        </mxCell>
        <mxCell id="WFAlv5kVyHz6nVMSSqYj-5" style="edgeStyle=orthogonalEdgeStyle;rounded=0;orthogonalLoop=1;jettySize=auto;html=1;exitX=1;exitY=0.75;exitDx=0;exitDy=0;exitPerimeter=0;" parent="1" source="MV15cFvIx1wRA3DABgGs-7" target="WFAlv5kVyHz6nVMSSqYj-4" edge="1">
          <mxGeometry relative="1" as="geometry" />
        </mxCell>
        <mxCell id="WFAlv5kVyHz6nVMSSqYj-8" style="edgeStyle=orthogonalEdgeStyle;rounded=0;orthogonalLoop=1;jettySize=auto;html=1;exitX=0;exitY=0.5;exitDx=0;exitDy=0;exitPerimeter=0;entryX=1;entryY=0.5;entryDx=0;entryDy=0;entryPerimeter=0;" parent="1" source="MV15cFvIx1wRA3DABgGs-7" target="WFAlv5kVyHz6nVMSSqYj-6" edge="1">
          <mxGeometry relative="1" as="geometry" />
        </mxCell>
        <mxCell id="MV15cFvIx1wRA3DABgGs-7" value="&lt;b&gt;Lambda&lt;/b&gt;&lt;br&gt;Endpoint Scaling and SSM" style="sketch=0;points=[[0,0,0],[0.25,0,0],[0.5,0,0],[0.75,0,0],[1,0,0],[0,1,0],[0.25,1,0],[0.5,1,0],[0.75,1,0],[1,1,0],[0,0.25,0],[0,0.5,0],[0,0.75,0],[1,0.25,0],[1,0.5,0],[1,0.75,0]];outlineConnect=0;fontColor=#232F3E;fillColor=#ED7100;strokeColor=#ffffff;dashed=0;verticalLabelPosition=bottom;verticalAlign=top;align=center;html=1;fontSize=12;fontStyle=0;aspect=fixed;shape=mxgraph.aws4.resourceIcon;resIcon=mxgraph.aws4.lambda;" parent="1" vertex="1">
          <mxGeometry x="520" y="660" width="78" height="78" as="geometry" />
        </mxCell>
        <mxCell id="WFAlv5kVyHz6nVMSSqYj-7" style="edgeStyle=orthogonalEdgeStyle;rounded=0;orthogonalLoop=1;jettySize=auto;html=1;exitX=0;exitY=0.5;exitDx=0;exitDy=0;exitPerimeter=0;entryX=1;entryY=0.5;entryDx=0;entryDy=0;entryPerimeter=0;" parent="1" source="MV15cFvIx1wRA3DABgGs-8" target="WFAlv5kVyHz6nVMSSqYj-6" edge="1">
          <mxGeometry relative="1" as="geometry" />
        </mxCell>
        <mxCell id="MV15cFvIx1wRA3DABgGs-8" value="&lt;b&gt;Lambda&lt;/b&gt;&lt;br&gt;Update Model DAG" style="sketch=0;points=[[0,0,0],[0.25,0,0],[0.5,0,0],[0.75,0,0],[1,0,0],[0,1,0],[0.25,1,0],[0.5,1,0],[0.75,1,0],[1,1,0],[0,0.25,0],[0,0.5,0],[0,0.75,0],[1,0.25,0],[1,0.5,0],[1,0.75,0]];outlineConnect=0;fontColor=#232F3E;fillColor=#ED7100;strokeColor=#ffffff;dashed=0;verticalLabelPosition=bottom;verticalAlign=top;align=center;html=1;fontSize=12;fontStyle=0;aspect=fixed;shape=mxgraph.aws4.resourceIcon;resIcon=mxgraph.aws4.lambda;" parent="1" vertex="1">
          <mxGeometry x="520" y="820" width="78" height="78" as="geometry" />
        </mxCell>
        <mxCell id="MV15cFvIx1wRA3DABgGs-19" value="" style="edgeStyle=orthogonalEdgeStyle;rounded=0;orthogonalLoop=1;jettySize=auto;html=1;" parent="1" source="MV15cFvIx1wRA3DABgGs-9" target="MV15cFvIx1wRA3DABgGs-18" edge="1">
          <mxGeometry relative="1" as="geometry" />
        </mxCell>
        <mxCell id="nYaRTomjNgdlJKKORXmW-6" value="" style="edgeStyle=orthogonalEdgeStyle;rounded=0;orthogonalLoop=1;jettySize=auto;html=1;" edge="1" parent="1" source="MV15cFvIx1wRA3DABgGs-9" target="nYaRTomjNgdlJKKORXmW-5">
          <mxGeometry relative="1" as="geometry" />
        </mxCell>
        <mxCell id="MV15cFvIx1wRA3DABgGs-9" value="&lt;b&gt;SageMaker&lt;/b&gt;&lt;br&gt;Models, Model Cards,&lt;br&gt;Endpoint Configurations,&lt;br&gt;and Endpoints" style="sketch=0;points=[[0,0,0],[0.25,0,0],[0.5,0,0],[0.75,0,0],[1,0,0],[0,1,0],[0.25,1,0],[0.5,1,0],[0.75,1,0],[1,1,0],[0,0.25,0],[0,0.5,0],[0,0.75,0],[1,0.25,0],[1,0.5,0],[1,0.75,0]];outlineConnect=0;fontColor=#232F3E;fillColor=#01A88D;strokeColor=#ffffff;dashed=0;verticalLabelPosition=middle;verticalAlign=middle;align=left;html=1;fontSize=12;fontStyle=0;aspect=fixed;shape=mxgraph.aws4.resourceIcon;resIcon=mxgraph.aws4.sagemaker;labelPosition=right;labelBackgroundColor=default;" parent="1" vertex="1">
          <mxGeometry x="863" y="520" width="78" height="78" as="geometry" />
        </mxCell>
        <mxCell id="MV15cFvIx1wRA3DABgGs-18" value="&lt;b&gt;S3&lt;/b&gt;&lt;br&gt;Stores Model Card JSON FIles" style="sketch=0;points=[[0,0,0],[0.25,0,0],[0.5,0,0],[0.75,0,0],[1,0,0],[0,1,0],[0.25,1,0],[0.5,1,0],[0.75,1,0],[1,1,0],[0,0.25,0],[0,0.5,0],[0,0.75,0],[1,0.25,0],[1,0.5,0],[1,0.75,0]];outlineConnect=0;fontColor=#232F3E;fillColor=#7AA116;strokeColor=#ffffff;dashed=0;verticalLabelPosition=top;verticalAlign=bottom;align=center;html=1;fontSize=12;fontStyle=0;aspect=fixed;shape=mxgraph.aws4.resourceIcon;resIcon=mxgraph.aws4.s3;labelPosition=center;" parent="1" vertex="1">
          <mxGeometry x="863" y="356" width="78" height="78" as="geometry" />
        </mxCell>
        <mxCell id="MV15cFvIx1wRA3DABgGs-20" value="&lt;b&gt;1&lt;/b&gt;" style="text;html=1;align=center;verticalAlign=middle;resizable=0;points=[];autosize=1;strokeColor=none;fillColor=none;" parent="1" vertex="1">
          <mxGeometry x="495" y="356" width="25" height="26" as="geometry" />
        </mxCell>
        <mxCell id="MV15cFvIx1wRA3DABgGs-21" value="&lt;b&gt;2&lt;/b&gt;" style="text;html=1;align=center;verticalAlign=middle;resizable=0;points=[];autosize=1;strokeColor=none;fillColor=none;" parent="1" vertex="1">
          <mxGeometry x="497" y="520" width="25" height="26" as="geometry" />
        </mxCell>
        <mxCell id="MV15cFvIx1wRA3DABgGs-22" value="&lt;b&gt;3&lt;/b&gt;" style="text;html=1;align=center;verticalAlign=middle;resizable=0;points=[];autosize=1;strokeColor=none;fillColor=none;" parent="1" vertex="1">
          <mxGeometry x="495" y="660" width="25" height="26" as="geometry" />
        </mxCell>
        <mxCell id="MV15cFvIx1wRA3DABgGs-23" value="&lt;b&gt;4&lt;/b&gt;" style="text;html=1;align=center;verticalAlign=middle;resizable=0;points=[];autosize=1;strokeColor=none;fillColor=none;" parent="1" vertex="1">
          <mxGeometry x="495" y="820" width="25" height="26" as="geometry" />
        </mxCell>
        <mxCell id="WFAlv5kVyHz6nVMSSqYj-1" value="&lt;b&gt;Application&lt;br&gt;Auto Scaling&lt;br&gt;&lt;/b&gt;" style="sketch=0;points=[[0,0,0],[0.25,0,0],[0.5,0,0],[0.75,0,0],[1,0,0],[0,1,0],[0.25,1,0],[0.5,1,0],[0.75,1,0],[1,1,0],[0,0.25,0],[0,0.5,0],[0,0.75,0],[1,0.25,0],[1,0.5,0],[1,0.75,0]];points=[[0,0,0],[0.25,0,0],[0.5,0,0],[0.75,0,0],[1,0,0],[0,1,0],[0.25,1,0],[0.5,1,0],[0.75,1,0],[1,1,0],[0,0.25,0],[0,0.5,0],[0,0.75,0],[1,0.25,0],[1,0.5,0],[1,0.75,0]];outlineConnect=0;fontColor=#232F3E;fillColor=#E7157B;strokeColor=#ffffff;dashed=0;verticalLabelPosition=bottom;verticalAlign=top;align=center;html=1;fontSize=12;fontStyle=0;aspect=fixed;shape=mxgraph.aws4.resourceIcon;resIcon=mxgraph.aws4.application_auto_scaling;" parent="1" vertex="1">
          <mxGeometry x="801" y="679" width="78" height="78" as="geometry" />
        </mxCell>
        <mxCell id="WFAlv5kVyHz6nVMSSqYj-4" value="&lt;b&gt;CloudWatch&lt;/b&gt;" style="sketch=0;points=[[0,0,0],[0.25,0,0],[0.5,0,0],[0.75,0,0],[1,0,0],[0,1,0],[0.25,1,0],[0.5,1,0],[0.75,1,0],[1,1,0],[0,0.25,0],[0,0.5,0],[0,0.75,0],[1,0.25,0],[1,0.5,0],[1,0.75,0]];points=[[0,0,0],[0.25,0,0],[0.5,0,0],[0.75,0,0],[1,0,0],[0,1,0],[0.25,1,0],[0.5,1,0],[0.75,1,0],[1,1,0],[0,0.25,0],[0,0.5,0],[0,0.75,0],[1,0.25,0],[1,0.5,0],[1,0.75,0]];outlineConnect=0;fontColor=#232F3E;fillColor=#E7157B;strokeColor=#ffffff;dashed=0;verticalLabelPosition=bottom;verticalAlign=top;align=center;html=1;fontSize=12;fontStyle=0;aspect=fixed;shape=mxgraph.aws4.resourceIcon;resIcon=mxgraph.aws4.cloudwatch_2;" parent="1" vertex="1">
          <mxGeometry x="700" y="757" width="78" height="78" as="geometry" />
        </mxCell>
        <mxCell id="WFAlv5kVyHz6nVMSSqYj-6" value="&lt;b&gt;Systems Manager&lt;br&gt;Parameter Store&lt;br&gt;&lt;/b&gt;" style="sketch=0;points=[[0,0,0],[0.25,0,0],[0.5,0,0],[0.75,0,0],[1,0,0],[0,1,0],[0.25,1,0],[0.5,1,0],[0.75,1,0],[1,1,0],[0,0.25,0],[0,0.5,0],[0,0.75,0],[1,0.25,0],[1,0.5,0],[1,0.75,0]];points=[[0,0,0],[0.25,0,0],[0.5,0,0],[0.75,0,0],[1,0,0],[0,1,0],[0.25,1,0],[0.5,1,0],[0.75,1,0],[1,1,0],[0,0.25,0],[0,0.5,0],[0,0.75,0],[1,0.25,0],[1,0.5,0],[1,0.75,0]];outlineConnect=0;fontColor=#232F3E;fillColor=#E7157B;strokeColor=#ffffff;dashed=0;verticalLabelPosition=bottom;verticalAlign=top;align=center;html=1;fontSize=12;fontStyle=0;aspect=fixed;shape=mxgraph.aws4.resourceIcon;resIcon=mxgraph.aws4.systems_manager;" parent="1" vertex="1">
          <mxGeometry x="298" y="589" width="78" height="78" as="geometry" />
        </mxCell>
        <mxCell id="nYaRTomjNgdlJKKORXmW-4" value="&lt;b&gt;KMS&lt;/b&gt;" style="outlineConnect=0;dashed=0;verticalLabelPosition=bottom;verticalAlign=top;align=center;html=1;shape=mxgraph.aws3.kms;fillColor=#759C3E;gradientColor=none;" vertex="1" parent="1">
          <mxGeometry x="298" y="311" width="76.5" height="93" as="geometry" />
        </mxCell>
        <mxCell id="nYaRTomjNgdlJKKORXmW-5" value="&lt;b&gt;ECR&lt;/b&gt;&lt;br&gt;Stores the ML Model&lt;br&gt;Container Images" style="sketch=0;points=[[0,0,0],[0.25,0,0],[0.5,0,0],[0.75,0,0],[1,0,0],[0,1,0],[0.25,1,0],[0.5,1,0],[0.75,1,0],[1,1,0],[0,0.25,0],[0,0.5,0],[0,0.75,0],[1,0.25,0],[1,0.5,0],[1,0.75,0]];outlineConnect=0;fontColor=#232F3E;fillColor=#ED7100;strokeColor=#ffffff;dashed=0;verticalLabelPosition=bottom;verticalAlign=top;align=center;html=1;fontSize=12;fontStyle=0;aspect=fixed;shape=mxgraph.aws4.resourceIcon;resIcon=mxgraph.aws4.ecr;labelPosition=center;" vertex="1" parent="1">
          <mxGeometry x="1140" y="520" width="78" height="78" as="geometry" />
        </mxCell>
      </root>
    </mxGraphModel>
  </diagram>
  <diagram id="5srAqdPjoq9Zv9bSmsVM" name="sample inference pipeline dag">
    <mxGraphModel dx="1562" dy="909" grid="0" gridSize="10" guides="1" tooltips="1" connect="1" arrows="1" fold="1" page="1" pageScale="1" pageWidth="2200" pageHeight="2200" math="0" shadow="0">
      <root>
        <mxCell id="0" />
        <mxCell id="1" parent="0" />
        <mxCell id="TzY7xavABMkqYpUnbwva-9" value="" style="edgeStyle=orthogonalEdgeStyle;rounded=0;orthogonalLoop=1;jettySize=auto;html=1;" edge="1" parent="1" source="TzY7xavABMkqYpUnbwva-1" target="TzY7xavABMkqYpUnbwva-4">
          <mxGeometry relative="1" as="geometry" />
        </mxCell>
        <mxCell id="TzY7xavABMkqYpUnbwva-1" value="data preprocessing" style="rounded=0;whiteSpace=wrap;html=1;" vertex="1" parent="1">
          <mxGeometry x="699" y="231" width="120" height="60" as="geometry" />
        </mxCell>
        <mxCell id="TzY7xavABMkqYpUnbwva-3" value="" style="edgeStyle=orthogonalEdgeStyle;rounded=0;orthogonalLoop=1;jettySize=auto;html=1;" edge="1" parent="1" source="TzY7xavABMkqYpUnbwva-2" target="TzY7xavABMkqYpUnbwva-1">
          <mxGeometry relative="1" as="geometry" />
        </mxCell>
        <mxCell id="TzY7xavABMkqYpUnbwva-2" value="raw event" style="text;html=1;align=center;verticalAlign=middle;resizable=0;points=[];autosize=1;strokeColor=none;fillColor=none;" vertex="1" parent="1">
          <mxGeometry x="724" y="151" width="70" height="26" as="geometry" />
        </mxCell>
        <mxCell id="TzY7xavABMkqYpUnbwva-11" style="edgeStyle=orthogonalEdgeStyle;rounded=0;orthogonalLoop=1;jettySize=auto;html=1;exitX=0.5;exitY=1;exitDx=0;exitDy=0;entryX=0;entryY=0.5;entryDx=0;entryDy=0;" edge="1" parent="1" source="TzY7xavABMkqYpUnbwva-4" target="TzY7xavABMkqYpUnbwva-6">
          <mxGeometry relative="1" as="geometry" />
        </mxCell>
        <mxCell id="TzY7xavABMkqYpUnbwva-4" value="feature engineering" style="rounded=0;whiteSpace=wrap;html=1;" vertex="1" parent="1">
          <mxGeometry x="699" y="326" width="120" height="60" as="geometry" />
        </mxCell>
        <mxCell id="TzY7xavABMkqYpUnbwva-6" value="inference 2" style="rounded=0;whiteSpace=wrap;html=1;" vertex="1" parent="1">
          <mxGeometry x="819" y="421" width="120" height="60" as="geometry" />
        </mxCell>
        <mxCell id="TzY7xavABMkqYpUnbwva-7" value="inference 1" style="rounded=0;whiteSpace=wrap;html=1;" vertex="1" parent="1">
          <mxGeometry x="579" y="421" width="120" height="60" as="geometry" />
        </mxCell>
        <mxCell id="TzY7xavABMkqYpUnbwva-10" value="" style="edgeStyle=orthogonalEdgeStyle;orthogonalLoop=1;jettySize=auto;html=1;rounded=0;entryX=1;entryY=0.5;entryDx=0;entryDy=0;" edge="1" parent="1" target="TzY7xavABMkqYpUnbwva-7">
          <mxGeometry width="100" relative="1" as="geometry">
            <mxPoint x="759" y="386" as="sourcePoint" />
            <mxPoint x="459" y="373" as="targetPoint" />
            <Array as="points">
              <mxPoint x="759" y="386" />
              <mxPoint x="759" y="451" />
            </Array>
          </mxGeometry>
        </mxCell>
      </root>
    </mxGraphModel>
  </diagram>
</mxfile>
